<svg width="254" height="246" viewBox="0 0 254 246" fill="none" xmlns="http://www.w3.org/2000/svg">
<path d="M237.495 72.1812H204.28C202.735 32.1443 169.695 0.0400391 129.284 0.0400391C88.8709 0.0400391 55.8337 32.1415 54.2911 72.1812H16.2212C7.50174 72.1812 0.406494 79.2764 0.406494 87.9959V229.859C0.406494 238.581 7.50174 245.673 16.2212 245.673H237.495C246.217 245.673 253.309 238.581 253.309 229.859V186.787V131.068V87.9959C253.306 79.2764 246.214 72.1812 237.495 72.1812ZM129.284 8.47004C165.047 8.47004 194.311 36.792 195.848 72.1812H109.628V58.5218C109.628 54.6777 112.132 51.4293 115.091 51.4293H143.48C146.442 51.4293 148.94 54.6777 148.94 58.5218C148.94 60.8512 150.829 62.7368 153.155 62.7368C155.482 62.7368 157.37 60.8512 157.37 58.5218C157.37 49.9625 151.138 42.9993 143.48 42.9993H133.502V35.7439C133.502 33.4144 131.614 31.5289 129.287 31.5289C126.96 31.5289 125.072 33.4144 125.072 35.7439V42.9993H115.094C107.431 42.9993 101.201 49.9625 101.201 58.5218V72.1812H62.7211C64.2581 36.792 93.5215 8.47004 129.284 8.47004ZM244.876 178.357H206.627C198.36 178.357 191.63 171.627 191.63 163.36V154.494C191.63 146.227 198.36 139.498 206.627 139.498H244.876V178.357ZM244.876 131.068H206.627C193.709 131.068 183.2 141.577 183.2 154.494V163.36C183.2 176.278 193.709 186.787 206.627 186.787H244.876V229.859C244.876 233.93 241.564 237.243 237.492 237.243H16.2212C12.1495 237.243 8.83649 233.93 8.83649 229.859V87.9959C8.83649 83.9242 12.1495 80.614 16.2212 80.614H237.495C241.566 80.614 244.879 83.927 244.879 87.9959V131.068H244.876Z" fill="white"/>
<path d="M225.17 163.144H209.319C206.992 163.144 205.104 161.255 205.104 158.929C205.104 156.602 206.992 154.714 209.319 154.714H225.17C227.497 154.714 229.385 156.602 229.385 158.929C229.385 161.255 227.497 163.144 225.17 163.144Z" fill="white"/>
<path d="M25.5362 105.943H22.7262C20.3967 105.943 18.5112 104.058 18.5112 101.728C18.5112 99.3989 20.3967 97.5134 22.7262 97.5134H25.5362C27.8657 97.5134 29.7512 99.3989 29.7512 101.728C29.7512 104.058 27.8629 105.943 25.5362 105.943Z" fill="white"/>
<path d="M213.992 105.943H208.608C206.281 105.943 204.393 104.058 204.393 101.728C204.393 99.3989 206.281 97.5134 208.608 97.5134H213.992C216.319 97.5134 218.207 99.3989 218.207 101.728C218.207 104.058 216.319 105.943 213.992 105.943ZM195.148 105.943H189.764C187.437 105.943 185.549 104.058 185.549 101.728C185.549 99.3989 187.437 97.5134 189.764 97.5134H195.148C197.475 97.5134 199.363 99.3989 199.363 101.728C199.363 104.058 197.475 105.943 195.148 105.943ZM176.301 105.943H170.917C168.591 105.943 166.702 104.058 166.702 101.728C166.702 99.3989 168.591 97.5134 170.917 97.5134H176.301C178.628 97.5134 180.516 99.3989 180.516 101.728C180.516 104.058 178.628 105.943 176.301 105.943ZM157.455 105.943H152.071C149.744 105.943 147.856 104.058 147.856 101.728C147.856 99.3989 149.744 97.5134 152.071 97.5134H157.455C159.781 97.5134 161.67 99.3989 161.67 101.728C161.67 104.058 159.781 105.943 157.455 105.943ZM138.611 105.943H133.227C130.9 105.943 129.012 104.058 129.012 101.728C129.012 99.3989 130.9 97.5134 133.227 97.5134H138.611C140.937 97.5134 142.826 99.3989 142.826 101.728C142.826 104.058 140.937 105.943 138.611 105.943ZM119.764 105.943H114.38C112.051 105.943 110.165 104.058 110.165 101.728C110.165 99.3989 112.051 97.5134 114.38 97.5134H119.764C122.094 97.5134 123.979 99.3989 123.979 101.728C123.979 104.058 122.094 105.943 119.764 105.943ZM100.92 105.943H95.5363C93.2068 105.943 91.3213 104.058 91.3213 101.728C91.3213 99.3989 93.2068 97.5134 95.5363 97.5134H100.92C103.25 97.5134 105.135 99.3989 105.135 101.728C105.135 104.058 103.247 105.943 100.92 105.943ZM82.0736 105.943H76.6896C74.3601 105.943 72.4746 104.058 72.4746 101.728C72.4746 99.3989 74.3601 97.5134 76.6896 97.5134H82.0736C84.403 97.5134 86.2886 99.3989 86.2886 101.728C86.2886 104.058 84.403 105.943 82.0736 105.943ZM63.2269 105.943H57.8429C55.5134 105.943 53.6279 104.058 53.6279 101.728C53.6279 99.3989 55.5134 97.5134 57.8429 97.5134H63.2297C65.5592 97.5134 67.4447 99.3989 67.4447 101.728C67.4447 104.058 65.5564 105.943 63.2269 105.943ZM44.3802 105.943H38.9963C36.6668 105.943 34.7812 104.058 34.7812 101.728C34.7812 99.3989 36.6668 97.5134 38.9963 97.5134H44.3802C46.7097 97.5134 48.5952 99.3989 48.5952 101.728C48.5952 104.058 46.7097 105.943 44.3802 105.943Z" fill="white"/>
<path d="M230.265 105.943H227.455C225.128 105.943 223.24 104.058 223.24 101.728C223.24 99.3989 225.128 97.5134 227.455 97.5134H230.265C232.591 97.5134 234.48 99.3989 234.48 101.728C234.48 104.058 232.591 105.943 230.265 105.943Z" fill="white"/>
</svg>
